<svg width="112" height="37" viewBox="0 0 112 37" fill="none" xmlns="http://www.w3.org/2000/svg">
<path d="M7.80664 28.6504C6.6582 28.6504 5.62109 28.498 4.69531 28.1934C3.76953 27.9004 2.97266 27.4727 2.30469 26.9102C1.625 26.3477 1.10352 25.6797 0.740234 24.9062C0.388672 24.1328 0.212891 23.2773 0.212891 22.3398C0.212891 21.5547 0.335938 20.8164 0.582031 20.125C0.839844 19.4219 1.19727 18.8125 1.6543 18.2969C2.11133 17.7812 2.64453 17.3828 3.25391 17.1016C3.86328 16.8086 4.50781 16.6621 5.1875 16.6621C6.03125 16.6621 6.74023 16.873 7.31445 17.2949C7.88867 17.7168 8.24609 18.2969 8.38672 19.0352C7.13281 19.0352 6.13672 19.3691 5.39844 20.0371C5.04688 20.3535 4.77148 20.7402 4.57227 21.1973C4.38477 21.6543 4.29102 22.1582 4.29102 22.709C4.29102 23.7637 4.5957 24.6016 5.20508 25.2227C5.82617 25.832 6.6582 26.1367 7.70117 26.1367C8.32227 26.1367 8.90234 26.0254 9.44141 25.8027C9.98047 25.5684 10.4492 25.252 10.8477 24.8535C11.2461 24.4551 11.5508 23.9805 11.7617 23.4297C11.9844 22.8672 12.0957 22.2695 12.0957 21.6367C12.0957 20.4648 11.6973 19.2461 10.9004 17.9805C10.584 17.4883 10.2324 17.0078 9.8457 16.5391C9.4707 16.0586 8.94336 15.4258 8.26367 14.6406C7.6543 13.9375 7.14453 13.3281 6.73438 12.8125C6.32422 12.2969 5.95508 11.7695 5.62695 11.2305C4.83008 9.92969 4.43164 8.65234 4.43164 7.39844C4.43164 6.46094 4.63086 5.59375 5.0293 4.79688C5.42773 3.98828 5.99609 3.28516 6.73438 2.6875C7.47266 2.08984 8.33398 1.62695 9.31836 1.29883C10.3027 0.970703 11.3633 0.806641 12.5 0.806641C14.4336 0.806641 15.9863 1.26367 17.1582 2.17773C17.7207 2.62305 18.1484 3.15625 18.4414 3.77734C18.7461 4.39844 18.8984 5.08984 18.8984 5.85156C18.8984 6.84766 18.6465 7.66211 18.1426 8.29492C17.9082 8.59961 17.6152 8.83398 17.2637 8.99805C16.9238 9.16211 16.5605 9.24414 16.1738 9.24414C15.2715 9.24414 14.5391 8.86914 13.9766 8.11914C14.4336 7.79102 14.791 7.35742 15.0488 6.81836C15.3184 6.26758 15.4531 5.68164 15.4531 5.06055C15.4531 4.28711 15.2246 3.67773 14.7676 3.23242C14.3105 2.77539 13.6836 2.54688 12.8867 2.54688C12.4062 2.54688 11.9609 2.63477 11.5508 2.81055C11.1523 2.98633 10.8125 3.23828 10.5312 3.56641C10.2383 3.89453 10.0098 4.28125 9.8457 4.72656C9.69336 5.17187 9.61719 5.6582 9.61719 6.18555C9.61719 6.93555 9.79297 7.65625 10.1445 8.34766C10.4961 9.03906 11 9.75977 11.6562 10.5098C12.2422 11.2012 12.875 11.8867 13.5547 12.5664C15.1367 14.207 16.2559 15.8066 16.9121 17.3652C17.2988 18.291 17.4922 19.3105 17.4922 20.4238C17.4922 21.5957 17.252 22.6855 16.7715 23.6934C16.291 24.6895 15.6055 25.5566 14.7148 26.2949C13.8242 27.0449 12.7871 27.625 11.6035 28.0352C10.4199 28.4453 9.1543 28.6504 7.80664 28.6504ZM23.8555 28.2109C22.4844 28.2109 21.377 27.7832 20.5332 26.9277C19.5488 25.9199 19.0566 24.4199 19.0566 22.4277C19.0566 21.584 19.1445 20.6934 19.3203 19.7559C19.4844 18.8184 19.7305 17.8926 20.0586 16.9785C20.8086 14.916 21.834 13.252 23.1348 11.9863C24.6348 10.5449 26.3633 9.82422 28.3203 9.82422C29.293 9.82422 30.0195 9.99414 30.5 10.334C30.9922 10.6621 31.2383 11.1016 31.2383 11.6523V11.916L31.625 10H36.8105L34.2266 22.2344C34.1211 22.5859 34.0684 22.9727 34.0684 23.3945C34.0684 24.4258 34.5605 24.9414 35.5449 24.9414C36.2012 24.9414 36.7988 24.6074 37.3379 23.9395C37.7949 23.377 38.1699 22.5801 38.4629 21.5488H39.9746C39.3301 23.377 38.5508 24.8242 37.6367 25.8906C36.8633 26.7695 35.9902 27.4023 35.0176 27.7891C34.3027 28.0703 33.5469 28.2109 32.75 28.2109C31.7305 28.2109 30.916 27.9355 30.3066 27.3848C29.709 26.8223 29.3457 25.9961 29.2168 24.9062C28.5371 25.8672 27.8223 26.6172 27.0723 27.1562C26.1113 27.8594 25.0391 28.2109 23.8555 28.2109ZM26.1934 24.7305C26.4629 24.7305 26.7441 24.6602 27.0371 24.5195C27.3418 24.3789 27.6348 24.1797 27.916 23.9219C28.5488 23.3125 28.9707 22.5215 29.1816 21.5488L30.9043 13.4277C30.9043 13.3105 30.875 13.1758 30.8164 13.0234C30.7695 12.8594 30.6992 12.707 30.6055 12.5664C30.3242 12.2266 29.9316 12.0566 29.4277 12.0566C28.9473 12.0566 28.4785 12.2148 28.0215 12.5312C27.5762 12.8477 27.1543 13.2871 26.7559 13.8496C26.0527 14.8691 25.4727 16.1992 25.0156 17.8398C24.8047 18.5664 24.6465 19.2871 24.541 20.002C24.4355 20.7051 24.3828 21.3438 24.3828 21.918C24.3828 23.1133 24.6055 23.9219 25.0508 24.3438C25.2031 24.5078 25.373 24.6133 25.5605 24.6602C25.748 24.707 25.959 24.7305 26.1934 24.7305ZM42.5762 28.2109C41.1816 28.2109 40.0977 27.8594 39.3242 27.1562C38.5508 26.4414 38.1641 25.3809 38.1641 23.9746C38.1641 23.3887 38.2227 22.8086 38.3398 22.2344L40.9238 10H46.1094L43.5254 22.2344C43.3965 22.8086 43.332 23.2422 43.332 23.5352C43.332 23.9102 43.4316 24.2031 43.6309 24.4141C43.8301 24.625 44.1406 24.7305 44.5625 24.7305C45.125 24.7305 45.6758 24.5312 46.2148 24.1328C46.7539 23.7344 47.2637 23.1836 47.7441 22.4805C48.1895 21.8359 48.5996 21.0859 48.9746 20.2305C49.3613 19.375 49.6895 18.4902 49.959 17.5762C50.2168 16.6855 50.416 15.8184 50.5566 14.9746C50.709 14.1191 50.7852 13.3633 50.7852 12.707C50.7383 12.8125 50.5684 12.9004 50.2754 12.9707C50.0879 13.0293 49.877 13.0586 49.6426 13.0586C49.2324 13.0586 48.9102 12.8594 48.6758 12.4609C48.4531 12.1211 48.3418 11.7109 48.3418 11.2305C48.3418 10.6445 48.5293 10.1758 48.9043 9.82422C49.2793 9.46094 49.8359 9.2793 50.5742 9.2793C51.3711 9.2793 51.9629 9.60156 52.3496 10.2461C52.6777 10.7852 52.8418 11.5059 52.8418 12.4082C52.8418 13.4043 52.7539 14.4824 52.5781 15.6426C52.4141 16.8027 52.1621 17.9453 51.8223 19.0703C51.002 21.7422 49.8945 23.8457 48.5 25.3809C46.8125 27.2676 44.8379 28.2109 42.5762 28.2109ZM58.6426 28.1406C56.8613 28.1406 55.4844 27.707 54.5117 26.8398C53.4219 25.8789 52.877 24.4199 52.877 22.4629C52.877 21.7246 52.9531 20.9102 53.1055 20.0195C53.2578 19.1172 53.4922 18.209 53.8086 17.2949C54.5352 15.1152 55.5723 13.375 56.9199 12.0742C58.5488 10.4805 60.4883 9.68359 62.7383 9.68359C65.8203 9.68359 67.3613 11.5996 67.3613 15.4316V15.4668C67.4316 15.4902 67.4902 15.502 67.5371 15.502H67.748C68.5449 15.502 69.4883 15.2793 70.5781 14.834C71.5391 14.4355 72.4473 13.9375 73.3027 13.3398L73.6191 14.3242C72.916 15.0625 72.0078 15.6895 70.8945 16.2051C69.793 16.7207 68.5742 17.0898 67.2383 17.3125C67.0977 18.9414 66.7812 20.4297 66.2891 21.7773C65.7969 23.1133 65.1641 24.2617 64.3906 25.2227C63.6289 26.1602 62.7559 26.8809 61.7715 27.3848C60.7871 27.8887 59.7441 28.1406 58.6426 28.1406ZM60.084 24.9062C60.5059 24.9062 60.9336 24.7188 61.3672 24.3438C61.8125 23.957 62.2285 23.4238 62.6152 22.7441C63.002 22.0645 63.3359 21.2676 63.6172 20.3535C63.8984 19.4395 64.1094 18.4609 64.25 17.418C63.8984 17.3242 63.6465 17.1484 63.4941 16.8906C63.3535 16.6328 63.2832 16.3047 63.2832 15.9062C63.2832 15.4141 63.3828 15.0039 63.582 14.6758C63.7812 14.3477 64.0566 14.1074 64.4082 13.9551C64.3613 13.1934 64.2383 12.6484 64.0391 12.3203C63.9336 12.1562 63.7988 12.0391 63.6348 11.9688C63.4824 11.8984 63.2832 11.8633 63.0371 11.8633C62.2285 11.8633 61.4375 12.4727 60.6641 13.6914C59.9492 14.793 59.3633 16.1523 58.9062 17.7695C58.4609 19.3516 58.2383 20.7578 58.2383 21.9883C58.2383 22.5859 58.2676 23.0723 58.3262 23.4473C58.3965 23.8223 58.5078 24.1152 58.6602 24.3262C58.8008 24.5371 58.9824 24.6895 59.2051 24.7832C59.4277 24.8652 59.7207 24.9062 60.084 24.9062ZM71.6504 10H76.8359L76.3789 12.2324C77.1992 11.5059 77.8672 10.9902 78.3828 10.6855C79.1797 10.2285 79.959 10 80.7207 10C81.4941 10 82.1152 10.2754 82.584 10.8262C82.7949 11.0723 82.9531 11.3594 83.0586 11.6875C83.1641 12.0039 83.2168 12.3438 83.2168 12.707C83.2168 13.0352 83.1641 13.3516 83.0586 13.6562C82.9531 13.9609 82.7949 14.2363 82.584 14.4824C82.3496 14.7402 82.0625 14.9453 81.7227 15.0977C81.3945 15.25 81.0254 15.3262 80.6152 15.3262C80.2988 15.3262 80.0469 15.2734 79.8594 15.168C79.6719 15.0625 79.5254 14.9102 79.4199 14.7109C79.3262 14.5117 79.2617 14.3184 79.2266 14.1309C79.1211 13.627 79.0156 13.293 78.9102 13.1289C78.8281 13.0117 78.6992 12.9531 78.5234 12.9531C78.0195 12.9531 77.5918 13.0586 77.2402 13.2695C76.8887 13.4805 76.4434 13.832 75.9043 14.3242L73.0215 28H67.8359L71.6504 10ZM86.3105 28.2109C85.1621 28.2109 84.2539 27.8711 83.5859 27.1914C82.8359 26.4414 82.4609 25.3457 82.4609 23.9043C82.4609 23.2246 82.5547 22.4395 82.7422 21.5488L86.5918 3.51367L91.918 2.79297L87.7871 22.2344C87.6934 22.5391 87.6465 22.9258 87.6465 23.3945C87.6465 23.8867 87.7578 24.2324 87.9805 24.4316C88.2148 24.6309 88.5898 24.7305 89.1055 24.7305C89.457 24.7305 89.7969 24.6543 90.125 24.502C90.4648 24.3379 90.7754 24.1152 91.0566 23.834C91.6309 23.2598 92.0645 22.498 92.3574 21.5488H93.8691C93.2246 23.3652 92.416 24.8125 91.4434 25.8906C90.623 26.7695 89.6973 27.4023 88.666 27.7891C87.916 28.0703 87.1309 28.2109 86.3105 28.2109ZM97.9824 37C97.4199 37 96.8926 36.9238 96.4004 36.7715C95.9199 36.6309 95.5039 36.4141 95.1523 36.1211C94.7773 35.8281 94.4844 35.459 94.2734 35.0137C94.0625 34.5801 93.957 34.0762 93.957 33.502C93.957 32.1426 94.5957 30.9766 95.873 30.0039C96.834 29.2891 98.1523 28.668 99.8281 28.1406L100.268 26.207C99.5645 26.9805 98.8027 27.5254 97.9824 27.8418C97.3496 28.0879 96.6699 28.2109 95.9434 28.2109C94.7949 28.2109 93.8867 27.8711 93.2188 27.1914C92.4688 26.4414 92.0938 25.3457 92.0938 23.9043C92.0938 23.2246 92.1875 22.4395 92.375 21.5488L94.8184 10H100.004L97.4199 22.2344C97.3496 22.5273 97.3145 22.832 97.3145 23.1484C97.3145 23.6055 97.3906 23.9688 97.543 24.2383C97.7188 24.5664 98 24.7305 98.3867 24.7305C99.0195 24.7305 99.5879 24.4492 100.092 23.8867C100.525 23.4062 100.895 22.7031 101.199 21.7773L103.713 10H108.898L105.33 26.6992C106.467 26.3242 107.375 25.7617 108.055 25.0117C108.793 24.2031 109.396 23.0488 109.865 21.5488H111.377C110.732 23.6816 109.771 25.3281 108.494 26.4883C107.557 27.332 106.396 27.9297 105.014 28.2812L104.469 30.8828C104.012 33.1797 103.098 34.8438 101.727 35.875C100.73 36.625 99.4824 37 97.9824 37ZM97.1562 34.1875C97.5195 34.1875 97.9062 33.9238 98.3164 33.3965C98.7148 32.8809 99.0254 32.0781 99.248 30.9883L99.459 29.9512C98.3691 30.3613 97.5547 30.7773 97.0156 31.1992C96.3008 31.7383 95.9434 32.3418 95.9434 33.0098C95.9434 33.3262 96.043 33.5898 96.2422 33.8008C96.4648 34.0586 96.7695 34.1875 97.1562 34.1875Z" fill="url(#paint0_linear_162_1183)"/>
<defs>
<linearGradient id="paint0_linear_162_1183" x1="-1" y1="17.5" x2="305" y2="17.5" gradientUnits="userSpaceOnUse">
<stop stop-color="#029F7E"/>
<stop offset="1" stop-color="#01392D"/>
</linearGradient>
</defs>
</svg>
